<svg width="47" height="16" viewBox="0 0 47 16" fill="none" xmlns="http://www.w3.org/2000/svg">
<path d="M17.7094 1.16752L11.725 15.2705H7.77345L4.73549 4.01586C4.551 3.32264 4.39237 3.06869 3.84056 2.77663C2.93988 2.30069 1.45385 1.85462 0.146993 1.57762L0.233569 1.16776L6.59431 1.16776C7.40509 1.16776 8.13664 1.69449 8.32538 2.60568L9.94114 10.7662L13.7825 1.16752L17.7094 1.16752ZM33.2408 10.6658C33.2377 6.94368 27.947 6.73863 27.9749 5.0759C27.9836 4.56987 28.4746 4.03185 29.5545 3.89452C30.0898 3.82609 31.5653 3.77389 33.243 4.52566L33.8843 1.53506C32.9832 1.21667 31.8244 0.910034 30.3845 0.910034C26.6896 0.910034 24.0991 2.82695 24.0912 5.57183C24.0777 7.60209 25.9633 8.73503 27.3831 9.40967C28.8436 10.1005 29.3347 10.5445 29.3323 11.1625C29.3268 12.1085 28.1772 12.5261 27.101 12.5425C25.2222 12.5708 24.1293 12.0464 23.2582 11.652L22.5964 14.7416C23.4718 15.1327 25.0858 15.4739 26.7573 15.491C30.6845 15.4908 33.2438 13.5979 33.2408 10.6658ZM43.0212 15.2705H46.4786L43.3887 1.16752H40.1976C39.4801 1.16752 38.8769 1.57527 38.6122 2.20217L33.0692 15.2705H36.9944L37.7632 13.1638L42.5592 13.1638L43.0212 15.2705ZM38.8247 10.2734L40.7652 4.97832L41.9247 10.2734H38.8247ZM23.0507 1.16752L20.0316 15.2705H16.2936L19.3139 1.16752L23.0507 1.16752Z" fill="white"/>
</svg>
