<svg width="26" height="24" viewBox="0 0 26 24" fill="none" xmlns="http://www.w3.org/2000/svg">
<path d="M21.969 16H8.91063M8.91063 16V3.5M8.91063 16L4.20962 20.5M4.20962 8H17.268M17.268 8V20.5M17.268 8L21.969 3.5M22.4913 15.3373V3.8C22.4913 3.51997 22.4913 3.37996 22.4344 3.273C22.3843 3.17892 22.3044 3.10243 22.2061 3.0545C22.0944 3 21.9481 3 21.6556 3H9.60298C9.34746 3 9.2197 3 9.09948 3.02763C8.99288 3.05213 8.89098 3.09253 8.79751 3.14736C8.69209 3.2092 8.60175 3.29568 8.42107 3.46863L4.17685 7.53137C3.99618 7.70432 3.90584 7.7908 3.84123 7.89172C3.78395 7.98119 3.74175 8.07873 3.71615 8.18077C3.68729 8.29586 3.68729 8.41815 3.68729 8.66274V20.2C3.68729 20.48 3.68729 20.62 3.74422 20.727C3.7943 20.8211 3.87421 20.8976 3.97249 20.9455C4.08422 21 4.23049 21 4.52302 21H16.5756C16.8312 21 16.9589 21 17.0791 20.9724C17.1857 20.9479 17.2876 20.9075 17.3811 20.8526C17.4865 20.7908 17.5769 20.7043 17.7575 20.5314L22.0018 16.4686C22.1824 16.2957 22.2728 16.2092 22.3374 16.1083C22.3947 16.0188 22.4369 15.9213 22.4625 15.8192C22.4913 15.7041 22.4913 15.5818 22.4913 15.3373Z" stroke="#FF5555" stroke-width="2" stroke-linecap="round" stroke-linejoin="round"/>
</svg>
