<svg width="26" height="24" viewBox="0 0 26 24" fill="none" xmlns="http://www.w3.org/2000/svg">
<path d="M13.0893 2.50002V12M13.0893 12L21.969 7.27773M13.0893 12L4.20962 7.27773M13.0893 12V21.5M21.969 16.7222L13.901 12.4317C13.6048 12.2741 13.4566 12.1954 13.2998 12.1645C13.1609 12.1371 13.0177 12.1371 12.8789 12.1645C12.722 12.1954 12.5738 12.2741 12.2776 12.4317L4.20962 16.7222M22.4913 16.0586V7.94147C22.4913 7.59883 22.4913 7.4275 22.4386 7.27471C22.3919 7.13953 22.3157 7.01545 22.2149 6.91076C22.1009 6.79242 21.9445 6.70922 21.6316 6.54282L13.901 2.43171C13.6048 2.27415 13.4566 2.19537 13.2998 2.16448C13.1609 2.13715 13.0177 2.13715 12.8789 2.16448C12.722 2.19537 12.5738 2.27415 12.2776 2.43171L4.54702 6.54282C4.23412 6.70922 4.07767 6.79242 3.96374 6.91076C3.86296 7.01545 3.78669 7.13953 3.74003 7.27471C3.68729 7.42751 3.68729 7.59883 3.68729 7.94147V16.0586C3.68729 16.4012 3.68729 16.5725 3.74003 16.7253C3.78669 16.8605 3.86296 16.9846 3.96374 17.0893C4.07767 17.2076 4.23412 17.2908 4.54702 17.4572L12.2776 21.5683C12.5738 21.7259 12.722 21.8047 12.8789 21.8356C13.0177 21.8629 13.1609 21.8629 13.2998 21.8356C13.4566 21.8047 13.6048 21.7259 13.901 21.5683L21.6316 17.4572C21.9445 17.2908 22.1009 17.2076 22.2149 17.0893C22.3157 16.9846 22.3919 16.8605 22.4386 16.7253C22.4913 16.5725 22.4913 16.4012 22.4913 16.0586Z" stroke="#FF5555" stroke-width="2" stroke-linecap="round" stroke-linejoin="round"/>
</svg>
