<svg width="51" height="49" viewBox="0 0 51 49" fill="none" xmlns="http://www.w3.org/2000/svg">
<ellipse cx="25.8343" cy="24.488" rx="25.072" ry="24" fill="#FF5555"/>
<path d="M27.9236 33.488H23.745M32.1023 20.488C32.1023 18.8967 31.4419 17.3706 30.2664 16.2454C29.091 15.1202 27.4967 14.488 25.8343 14.488C24.1719 14.488 22.5776 15.1202 21.4021 16.2454C20.2267 17.3706 19.5663 18.8967 19.5663 20.488C19.5663 23.5782 18.7519 25.694 17.8422 27.0934C17.0749 28.2739 16.6912 28.8641 16.7053 29.0288C16.7208 29.2111 16.7612 29.2806 16.9147 29.3896C17.0533 29.488 17.6781 29.488 18.9278 29.488H32.7407C33.9904 29.488 34.6153 29.488 34.7539 29.3896C34.9074 29.2806 34.9477 29.2111 34.9633 29.0288C34.9774 28.8641 34.5937 28.2739 33.8264 27.0935C32.9166 25.694 32.1023 23.5782 32.1023 20.488Z" stroke="white" stroke-width="2" stroke-linecap="round" stroke-linejoin="round"/>
</svg>
