<svg width="51" height="49" viewBox="0 0 51 49" fill="none" xmlns="http://www.w3.org/2000/svg">
<ellipse cx="25.6253" cy="24.9761" rx="25.072" ry="24" fill="#FF5555"/>
<path d="M25.6254 14.9761L24.2657 20.1821C24.0004 21.1979 23.8678 21.7059 23.5915 22.1192C23.3471 22.4848 23.0227 22.7952 22.6408 23.0292C22.2091 23.2936 21.6784 23.4206 20.6172 23.6746L15.1787 24.9761L20.6172 26.2776C21.6784 26.5315 22.2091 26.6585 22.6408 26.923C23.0227 27.1569 23.3471 27.4674 23.5915 27.833C23.8678 28.2463 24.0004 28.7542 24.2657 29.7701L25.6254 34.9761L26.985 29.7701C27.2503 28.7542 27.383 28.2463 27.6592 27.833C27.9036 27.4674 28.228 27.1569 28.6099 26.923C29.0417 26.6585 29.5723 26.5315 30.6335 26.2776L36.072 24.9761L30.6335 23.6746C29.5723 23.4206 29.0417 23.2936 28.6099 23.0292C28.228 22.7952 27.9036 22.4848 27.6592 22.1192C27.383 21.7059 27.2503 21.1979 26.985 20.1821L25.6254 14.9761Z" stroke="white" stroke-width="2" stroke-linecap="round" stroke-linejoin="round"/>
</svg>
