<svg width="26" height="24" viewBox="0 0 26 24" fill="none" xmlns="http://www.w3.org/2000/svg">
<path d="M13.0893 2L11.7297 7.20599C11.4644 8.22185 11.3317 8.72978 11.0554 9.14309C10.811 9.50868 10.4867 9.81915 10.1048 10.0531C9.67301 10.3176 9.14239 10.4445 8.08116 10.6985L2.64262 12L8.08115 13.3015C9.14239 13.5555 9.67301 13.6824 10.1048 13.9469C10.4867 14.1808 10.811 14.4913 11.0554 14.8569C11.3317 15.2702 11.4644 15.7782 11.7297 16.794L13.0893 22L14.4489 16.794C14.7142 15.7782 14.8469 15.2702 15.1232 14.8569C15.3676 14.4913 15.6919 14.1808 16.0738 13.9469C16.5056 13.6824 17.0362 13.5555 18.0975 13.3015L23.536 12L18.0975 10.6985C17.0362 10.4445 16.5056 10.3176 16.0738 10.0531C15.6919 9.81915 15.3676 9.50868 15.1232 9.14309C14.8469 8.72978 14.7142 8.22185 14.4489 7.20599L13.0893 2Z" stroke="#FF5555" stroke-width="2" stroke-linecap="round" stroke-linejoin="round"/>
</svg>
