<svg width="68" height="30" viewBox="0 0 68 30" fill="none" xmlns="http://www.w3.org/2000/svg">
<path d="M6.69753 23.1301C7.75817 23.1301 8.69643 22.9408 9.51231 22.5623C10.3282 22.1639 10.9503 21.5662 11.3786 20.7693V22.7715H15.662V6.45552H11.0727V15.9881C11.0727 16.9244 10.7871 17.6815 10.216 18.2592C9.64489 18.817 8.9106 19.0959 8.01313 19.0959C7.11567 19.0959 6.38137 18.817 5.81026 18.2592C5.23914 17.6815 4.95358 16.9244 4.95358 15.9881V6.45552H0.364258V16.3467C0.364258 18.3787 0.904778 20.0223 1.98582 21.2773C3.08726 22.5125 4.65783 23.1301 6.69753 23.1301Z" fill="black"/>
<path d="M19.0163 4.99127H23.6056V0.50886H19.0163V4.99127ZM19.0163 22.7715H23.6056V6.45552H19.0163V22.7715Z" fill="black"/>
<path d="M28.9832 22.7715H33.5726V10.3403H37.1522V6.45552H33.5726V6.21646C33.5726 4.76217 34.4394 4.03502 36.1732 4.03502C36.4587 4.03502 36.7953 4.0649 37.1828 4.12467V0.299682C36.7137 0.200073 36.1732 0.150269 35.5613 0.150269C33.4808 0.150269 31.8592 0.678196 30.6966 1.73405C29.5544 2.78991 28.9832 4.28404 28.9832 6.21646V6.45552H26.1685V10.3403H28.9832V22.7715Z" fill="black"/>
<path d="M39.5129 22.7715H44.1022V13.986C44.1022 12.7707 44.449 11.8344 45.1424 11.177C45.8359 10.4996 46.7436 10.161 47.8654 10.161H49.3034V6.27622H48.3244C47.3045 6.27622 46.3969 6.46548 45.6014 6.84399C44.8263 7.20259 44.2246 7.88989 43.7962 8.9059V6.45552H39.5129V22.7715Z" fill="black"/>
<path d="M53.9155 29.4054C56.975 29.4054 59.1881 27.7021 60.5547 24.2955L67.714 6.45552H62.7882L58.8413 16.9443L54.8945 6.45552H49.9686L56.5467 22.7715L56.2407 23.4588C55.996 23.9967 55.6798 24.4748 55.2923 24.8931C54.9047 25.3115 54.2622 25.5207 53.3648 25.5207C52.6305 25.5207 51.937 25.4211 51.2843 25.2219V28.8974C51.631 29.0767 52.0287 29.2062 52.4775 29.2859C52.9466 29.3656 53.4259 29.4054 53.9155 29.4054Z" fill="black"/>
</svg>
